<?xml version="1.0" encoding="UTF-8" ?>
<!DOCTYPE svg PUBLIC "-//W3C//DTD SVG 1.1//EN" "http://www.w3.org/Graphics/SVG/1.1/DTD/svg11.dtd">
<svg width="149pt" height="92pt" viewBox="0 0 149 92" version="1.1" xmlns="http://www.w3.org/2000/svg">
<g id="#42b983ff">
<path fill="#42b983" opacity="1.00" d=" M 67.80 0.00 L 68.48 0.00 C 74.31 1.44 80.06 4.51 83.26 9.76 C 88.29 17.89 87.54 28.06 85.63 37.03 C 83.83 46.64 78.76 55.16 76.37 64.59 C 75.67 67.17 75.11 69.96 72.92 71.75 C 68.43 69.10 65.92 64.07 65.54 58.98 C 64.66 48.56 68.18 38.44 72.11 28.96 C 75.59 19.53 74.95 7.55 67.80 0.00 Z" />
<path fill="#42b983" opacity="1.00" d=" M 28.34 22.23 C 41.47 26.98 52.37 37.16 58.25 49.79 C 61.47 56.59 63.60 63.92 64.38 71.41 C 59.02 67.94 52.63 65.58 48.81 60.19 C 46.13 56.88 44.81 52.80 43.21 48.92 C 38.88 39.69 33.51 31.00 28.34 22.23 Z" />
<path fill="#42b983" opacity="1.00" d=" M 90.16 50.94 C 95.02 38.05 107.59 30.21 119.49 24.57 C 112.24 34.15 107.09 45.10 102.13 55.98 C 97.41 65.88 87.69 74.16 76.28 74.08 C 84.06 68.80 88.09 59.82 90.16 50.94 Z" />
<path fill="#42b983" opacity="1.00" d=" M 0.01 50.95 C 9.29 49.51 19.00 51.28 27.20 55.84 C 43.62 64.77 60.09 73.59 76.47 82.58 C 79.25 83.88 80.37 87.79 77.82 89.91 C 74.85 91.18 71.69 89.24 69.02 88.02 C 46.02 75.66 22.96 63.40 0.01 50.95 Z" />
<path fill="#42b983" opacity="1.00" d=" M 116.23 60.23 C 123.09 55.80 131.04 53.51 139.02 52.16 C 142.38 51.87 145.83 51.96 149.00 53.24 L 149.00 53.61 C 135.08 61.76 121.10 69.89 107.40 78.43 C 101.70 82.15 94.91 84.71 88.02 84.28 C 84.44 84.13 81.34 82.10 79.06 79.46 C 92.21 74.67 104.21 67.29 116.23 60.23 Z" />
</g>
</svg>
